<mxfile host="Electron" modified="2024-05-08T17:29:57.984Z" agent="Mozilla/5.0 (X11; Linux x86_64) AppleWebKit/537.36 (KHTML, like Gecko) draw.io/24.2.5 Chrome/120.0.6099.109 Electron/28.1.0 Safari/537.36" etag="c5ALTV1rJDaNKFCaZEx_" version="24.2.5" type="device">
  <diagram name="Página-1" id="CurySxxXu2C1Rzmgpb91">
    <mxGraphModel dx="792" dy="1019" grid="1" gridSize="10" guides="1" tooltips="1" connect="1" arrows="1" fold="1" page="1" pageScale="1" pageWidth="827" pageHeight="583" math="0" shadow="0">
      <root>
        <mxCell id="0" />
        <mxCell id="1" parent="0" />
        <mxCell id="Q6l-A-WZH55Bo8x8fdeK-15" style="edgeStyle=orthogonalEdgeStyle;rounded=0;orthogonalLoop=1;jettySize=auto;html=1;exitX=0.5;exitY=1;exitDx=0;exitDy=0;entryX=0.5;entryY=0;entryDx=0;entryDy=0;" edge="1" parent="1" source="Q6l-A-WZH55Bo8x8fdeK-4" target="Q6l-A-WZH55Bo8x8fdeK-14">
          <mxGeometry relative="1" as="geometry" />
        </mxCell>
        <mxCell id="Q6l-A-WZH55Bo8x8fdeK-4" value="Inicio de simulación" style="ellipse;whiteSpace=wrap;html=1;fillColor=#f5f5f5;fontColor=#333333;strokeColor=none;" vertex="1" parent="1">
          <mxGeometry x="61.5" y="-10" width="120" height="60" as="geometry" />
        </mxCell>
        <mxCell id="Q6l-A-WZH55Bo8x8fdeK-22" style="edgeStyle=orthogonalEdgeStyle;rounded=0;orthogonalLoop=1;jettySize=auto;html=1;exitX=0.5;exitY=1;exitDx=0;exitDy=0;entryX=0.5;entryY=0;entryDx=0;entryDy=0;" edge="1" parent="1" source="Q6l-A-WZH55Bo8x8fdeK-13" target="Q6l-A-WZH55Bo8x8fdeK-28">
          <mxGeometry relative="1" as="geometry">
            <mxPoint x="328.75" y="280" as="targetPoint" />
          </mxGeometry>
        </mxCell>
        <mxCell id="Q6l-A-WZH55Bo8x8fdeK-13" value="Codificar siguiente estado a transmitir en un qubit" style="rounded=0;whiteSpace=wrap;html=1;fillColor=#dae8fc;strokeColor=none;" vertex="1" parent="1">
          <mxGeometry x="50" y="190" width="145" height="60" as="geometry" />
        </mxCell>
        <mxCell id="Q6l-A-WZH55Bo8x8fdeK-17" style="edgeStyle=orthogonalEdgeStyle;rounded=0;orthogonalLoop=1;jettySize=auto;html=1;exitX=1;exitY=0.5;exitDx=0;exitDy=0;" edge="1" parent="1" source="Q6l-A-WZH55Bo8x8fdeK-14" target="Q6l-A-WZH55Bo8x8fdeK-16">
          <mxGeometry relative="1" as="geometry" />
        </mxCell>
        <mxCell id="Q6l-A-WZH55Bo8x8fdeK-25" value="NO" style="edgeLabel;html=1;align=center;verticalAlign=middle;resizable=0;points=[];" vertex="1" connectable="0" parent="Q6l-A-WZH55Bo8x8fdeK-17">
          <mxGeometry x="-0.4429" y="-1" relative="1" as="geometry">
            <mxPoint as="offset" />
          </mxGeometry>
        </mxCell>
        <mxCell id="Q6l-A-WZH55Bo8x8fdeK-21" style="edgeStyle=orthogonalEdgeStyle;rounded=0;orthogonalLoop=1;jettySize=auto;html=1;exitX=0.5;exitY=1;exitDx=0;exitDy=0;" edge="1" parent="1" source="Q6l-A-WZH55Bo8x8fdeK-14" target="Q6l-A-WZH55Bo8x8fdeK-13">
          <mxGeometry relative="1" as="geometry" />
        </mxCell>
        <mxCell id="Q6l-A-WZH55Bo8x8fdeK-26" value="SI" style="edgeLabel;html=1;align=center;verticalAlign=middle;resizable=0;points=[];" vertex="1" connectable="0" parent="Q6l-A-WZH55Bo8x8fdeK-21">
          <mxGeometry x="-0.35" relative="1" as="geometry">
            <mxPoint as="offset" />
          </mxGeometry>
        </mxCell>
        <mxCell id="Q6l-A-WZH55Bo8x8fdeK-14" value="Simulación activa?" style="rhombus;whiteSpace=wrap;html=1;" vertex="1" parent="1">
          <mxGeometry x="82.5" y="80" width="80" height="80" as="geometry" />
        </mxCell>
        <mxCell id="Q6l-A-WZH55Bo8x8fdeK-16" value="Fin simulación" style="ellipse;whiteSpace=wrap;html=1;fillColor=#f5f5f5;fontColor=#333333;strokeColor=none;" vertex="1" parent="1">
          <mxGeometry x="452.5" y="90" width="120" height="60" as="geometry" />
        </mxCell>
        <mxCell id="Q6l-A-WZH55Bo8x8fdeK-33" style="edgeStyle=orthogonalEdgeStyle;rounded=0;orthogonalLoop=1;jettySize=auto;html=1;exitX=0.5;exitY=1;exitDx=0;exitDy=0;entryX=0.5;entryY=0;entryDx=0;entryDy=0;" edge="1" parent="1" source="Q6l-A-WZH55Bo8x8fdeK-28" target="Q6l-A-WZH55Bo8x8fdeK-29">
          <mxGeometry relative="1" as="geometry" />
        </mxCell>
        <mxCell id="Q6l-A-WZH55Bo8x8fdeK-28" value="Almacenar qubit en memoria" style="rounded=0;whiteSpace=wrap;html=1;fillColor=#dae8fc;strokeColor=none;" vertex="1" parent="1">
          <mxGeometry x="49" y="280" width="145" height="60" as="geometry" />
        </mxCell>
        <mxCell id="Q6l-A-WZH55Bo8x8fdeK-34" style="edgeStyle=orthogonalEdgeStyle;rounded=0;orthogonalLoop=1;jettySize=auto;html=1;exitX=1;exitY=0.5;exitDx=0;exitDy=0;entryX=0;entryY=0.5;entryDx=0;entryDy=0;" edge="1" parent="1" source="Q6l-A-WZH55Bo8x8fdeK-29" target="Q6l-A-WZH55Bo8x8fdeK-30">
          <mxGeometry relative="1" as="geometry" />
        </mxCell>
        <mxCell id="Q6l-A-WZH55Bo8x8fdeK-29" value="Solicitar un par entrelazado al RouteProtocol del path" style="rounded=0;whiteSpace=wrap;html=1;fillColor=#dae8fc;strokeColor=none;" vertex="1" parent="1">
          <mxGeometry x="50" y="370" width="145" height="60" as="geometry" />
        </mxCell>
        <mxCell id="Q6l-A-WZH55Bo8x8fdeK-35" style="edgeStyle=orthogonalEdgeStyle;rounded=0;orthogonalLoop=1;jettySize=auto;html=1;exitX=0.5;exitY=1;exitDx=0;exitDy=0;entryX=0.5;entryY=0;entryDx=0;entryDy=0;" edge="1" parent="1" source="Q6l-A-WZH55Bo8x8fdeK-30" target="Q6l-A-WZH55Bo8x8fdeK-31">
          <mxGeometry relative="1" as="geometry" />
        </mxCell>
        <mxCell id="Q6l-A-WZH55Bo8x8fdeK-30" value="Esperar a que el par esté disponible" style="rounded=0;whiteSpace=wrap;html=1;fillColor=#dae8fc;strokeColor=none;" vertex="1" parent="1">
          <mxGeometry x="250" y="190" width="145" height="60" as="geometry" />
        </mxCell>
        <mxCell id="Q6l-A-WZH55Bo8x8fdeK-36" style="edgeStyle=orthogonalEdgeStyle;rounded=0;orthogonalLoop=1;jettySize=auto;html=1;exitX=0.5;exitY=1;exitDx=0;exitDy=0;entryX=0.5;entryY=0;entryDx=0;entryDy=0;" edge="1" parent="1" source="Q6l-A-WZH55Bo8x8fdeK-31" target="Q6l-A-WZH55Bo8x8fdeK-32">
          <mxGeometry relative="1" as="geometry" />
        </mxCell>
        <mxCell id="Q6l-A-WZH55Bo8x8fdeK-31" value="Realizar mediciones en base de Bell" style="rounded=0;whiteSpace=wrap;html=1;fillColor=#dae8fc;strokeColor=none;" vertex="1" parent="1">
          <mxGeometry x="250" y="280" width="145" height="60" as="geometry" />
        </mxCell>
        <mxCell id="Q6l-A-WZH55Bo8x8fdeK-40" style="edgeStyle=orthogonalEdgeStyle;rounded=0;orthogonalLoop=1;jettySize=auto;html=1;exitX=1;exitY=0.5;exitDx=0;exitDy=0;entryX=0;entryY=0.5;entryDx=0;entryDy=0;" edge="1" parent="1" source="Q6l-A-WZH55Bo8x8fdeK-32" target="Q6l-A-WZH55Bo8x8fdeK-37">
          <mxGeometry relative="1" as="geometry" />
        </mxCell>
        <mxCell id="Q6l-A-WZH55Bo8x8fdeK-32" value="Enviar correcciones al nodo final" style="rounded=0;whiteSpace=wrap;html=1;fillColor=#dae8fc;strokeColor=none;" vertex="1" parent="1">
          <mxGeometry x="250" y="370" width="145" height="60" as="geometry" />
        </mxCell>
        <mxCell id="Q6l-A-WZH55Bo8x8fdeK-41" style="edgeStyle=orthogonalEdgeStyle;rounded=0;orthogonalLoop=1;jettySize=auto;html=1;exitX=0.5;exitY=1;exitDx=0;exitDy=0;" edge="1" parent="1" source="Q6l-A-WZH55Bo8x8fdeK-37" target="Q6l-A-WZH55Bo8x8fdeK-38">
          <mxGeometry relative="1" as="geometry" />
        </mxCell>
        <mxCell id="Q6l-A-WZH55Bo8x8fdeK-37" value="Esperar a finalización protocolo de&amp;nbsp;&lt;span style=&quot;color: rgba(0, 0, 0, 0); font-family: monospace; font-size: 0px; text-align: start; text-wrap: nowrap;&quot;&gt;%3CmxGraphModel%3E%3Croot%3E%3CmxCell%20id%3D%220%22%2F%3E%3CmxCell%20id%3D%221%22%20parent%3D%220%22%2F%3E%3CmxCell%20id%3D%222%22%20value%3D%22Enviar%20correcciones%20al%20nodo%20final%22%20style%3D%22rounded%3D0%3BwhiteSpace%3Dwrap%3Bhtml%3D1%3BfillColor%3D%23dae8fc%3BstrokeColor%3Dnone%3B%22%20vertex%3D%221%22%20parent%3D%221%22%3E%3CmxGeometry%20x%3D%22250%22%20y%3D%22370%22%20width%3D%22145%22%20height%3D%2260%22%20as%3D%22geometry%22%2F%3E%3C%2FmxCell%3E%3C%2Froot%3E%3C%2FmxGraphModel%3E&lt;/span&gt;&lt;span style=&quot;color: rgba(0, 0, 0, 0); font-family: monospace; font-size: 0px; text-align: start; text-wrap: nowrap;&quot;&gt;%3CmxGraphModel%3E%3Croot%3E%3CmxCell%20id%3D%220%22%2F%3E%3CmxCell%20id%3D%221%22%20parent%3D%220%22%2F%3E%3CmxCell%20id%3D%222%22%20value%3D%22Enviar%20correcciones%20al%20nodo%20final%22%20style%3D%22rounded%3D0%3BwhiteSpace%3Dwrap%3Bhtml%3D1%3BfillColor%3D%23dae8fc%3BstrokeColor%3Dnone%3B%22%20vertex%3D%221%22%20parent%3D%221%22%3E%3CmxGeometry%20x%3D%22250%22%20y%3D%22370%22%20width%3D%22145%22%20height%3D%2260%22%20as%3D%22geometry%22%2F%3E%3C%2FmxCell%3E%3C%2Froot%3E%3C%2FmxGraphModel%3E&lt;/span&gt;Teleportación" style="rounded=0;whiteSpace=wrap;html=1;fillColor=#dae8fc;strokeColor=none;" vertex="1" parent="1">
          <mxGeometry x="440" y="190" width="145" height="60" as="geometry" />
        </mxCell>
        <mxCell id="Q6l-A-WZH55Bo8x8fdeK-42" style="edgeStyle=orthogonalEdgeStyle;rounded=0;orthogonalLoop=1;jettySize=auto;html=1;exitX=0.5;exitY=1;exitDx=0;exitDy=0;entryX=0.5;entryY=0;entryDx=0;entryDy=0;" edge="1" parent="1" source="Q6l-A-WZH55Bo8x8fdeK-38" target="Q6l-A-WZH55Bo8x8fdeK-39">
          <mxGeometry relative="1" as="geometry" />
        </mxCell>
        <mxCell id="Q6l-A-WZH55Bo8x8fdeK-38" value="Medir fidelidad del qubit en destino respecto del enviado originalmente" style="rounded=0;whiteSpace=wrap;html=1;fillColor=#dae8fc;strokeColor=none;" vertex="1" parent="1">
          <mxGeometry x="440" y="280" width="145" height="60" as="geometry" />
        </mxCell>
        <mxCell id="Q6l-A-WZH55Bo8x8fdeK-43" style="edgeStyle=orthogonalEdgeStyle;rounded=0;orthogonalLoop=1;jettySize=auto;html=1;exitX=0.5;exitY=1;exitDx=0;exitDy=0;entryX=0;entryY=0.5;entryDx=0;entryDy=0;" edge="1" parent="1" source="Q6l-A-WZH55Bo8x8fdeK-39" target="Q6l-A-WZH55Bo8x8fdeK-14">
          <mxGeometry relative="1" as="geometry">
            <Array as="points">
              <mxPoint x="513" y="450" />
              <mxPoint x="10" y="450" />
              <mxPoint x="10" y="120" />
            </Array>
          </mxGeometry>
        </mxCell>
        <mxCell id="Q6l-A-WZH55Bo8x8fdeK-39" value="Registrar resultado en datacollector" style="rounded=0;whiteSpace=wrap;html=1;fillColor=#dae8fc;strokeColor=none;" vertex="1" parent="1">
          <mxGeometry x="440" y="370" width="145" height="60" as="geometry" />
        </mxCell>
      </root>
    </mxGraphModel>
  </diagram>
</mxfile>
